<mxfile host="app.diagrams.net" modified="2023-12-31T18:52:23.696Z" agent="Mozilla/5.0 (Windows NT 10.0; Win64; x64) AppleWebKit/537.36 (KHTML, like Gecko) Chrome/120.0.0.0 Safari/537.36" version="22.1.16" etag="fC1eTBdwQbxdae5OZ_-1" type="github">
  <diagram name="PÃ¡gina-1" id="XiepPA28lpMEwEsh892S">
    <mxGraphModel>
      <root>
        <mxCell id="0" />
        <mxCell id="1" parent="0" />
      </root>
    </mxGraphModel>
  </diagram>
</mxfile>
